<?xml version="1.0" encoding="iso-8859-1"?>
<!-- Generator: Adobe Illustrator 19.0.0, SVG Export Plug-In . SVG Version: 6.00 Build 0)  -->
<svg xmlns="http://www.w3.org/2000/svg" xmlns:xlink="http://www.w3.org/1999/xlink" version="1.1" id="Layer_1" x="0px" y="0px" viewBox="0 0 512 512" style="enable-background:new 0 0 512 512;" xml:space="preserve" width="512" height="512">
<g id="XMLID_756_">
	<g id="XMLID_757_">
		<path id="XMLID_758_" style="fill:#EB5163;" d="M258.24,142.667c0,30.31-24.57,54.88-54.88,54.88c-27.04,0-49.52-19.56-54.04-45.3    c-0.55-3.11-0.84-6.31-0.84-9.58c0-30.31,24.57-54.88,54.88-54.88c12.86,0,24.69,4.42,34.04,11.82    C250.09,109.667,258.24,125.217,258.24,142.667z"/>
		<path id="XMLID_759_" style="fill:#D63249;" d="M258.24,142.667c0,30.31-24.57,54.88-54.88,54.88c-27.04,0-49.52-19.56-54.04-45.3    h81.42c-2.19-19.03,0.14-36.94,6.66-52.64C250.09,109.667,258.24,125.217,258.24,142.667z"/>
		<g id="XMLID_760_">
			<path id="XMLID_1429_" style="fill:#00DF97;" d="M242.819,152.251c0.6,4.78,1.52,9.58,2.76,14.38c0.89,3.46,3.62,6.18,7.08,7.07     c32.77,8.41,65.6,2.27,87.56-19.69c0.58-0.58,1.15-1.17,1.7-1.76c20.56-21.93,26.18-53.88,17.99-85.8     c-0.89-3.46-3.62-6.19-7.08-7.08c-32.78-8.42-65.61-2.27-87.57,19.69C246.519,97.791,239.289,124.461,242.819,152.251z"/>
			<path id="XMLID_1428_" style="fill:#00B579;" d="M242.819,152.251c0.6,4.78,1.52,9.58,2.76,14.38c0.89,3.46,3.62,6.18,7.08,7.07     c32.77,8.41,65.6,2.27,87.56-19.69c0.58-0.58,1.15-1.17,1.7-1.76H242.819z"/>
		</g>
	</g>
	<rect id="XMLID_761_" x="56" y="212.567" style="fill:#F16E79;" width="400" height="166.08"/>
	<path id="XMLID_762_" style="fill:#EB5163;" d="M456,212.567v24.91h-69.43c-8.58,0-15.57,6.98-15.57,15.57v55.67   c0,22.02-17.91,39.93-39.93,39.93c-22.01,0-39.92-17.91-39.92-39.93v-55.67c0-8.59-6.99-15.57-15.58-15.57   c-8.58,0-15.57,6.98-15.57,15.57v22.41c0,20.95-17.05,38-38,38s-38-17.05-38-38v-22.41c0-8.59-6.99-15.57-15.57-15.57H56v-24.91   H456z"/>
	<rect id="XMLID_763_" x="56" y="212.567" style="fill:#A86552;" width="400" height="57.81"/>
	<path id="XMLID_764_" style="fill:#915040;" d="M456,212.567v24.91h-69.43c-8.58,0-15.57,6.98-15.57,15.57v17.33h-79.85v-17.33   c0-8.59-6.99-15.57-15.58-15.57c-8.58,0-15.57,6.98-15.57,15.57v17.33h-76v-17.33c0-8.59-6.99-15.57-15.57-15.57H56v-24.91H456z"/>
	<g id="XMLID_765_">
		<path id="XMLID_766_" style="fill:#EFA66F;" d="M463.163,410.536v38.677c0,5.965-4.842,10.807-10.807,10.807H59.645    c-5.965,0-10.807-4.842-10.807-10.807v-38.677H463.163z"/>
		<rect id="XMLID_767_" x="48.837" y="410.536" style="fill:#E88F52;" width="414.325" height="22.717"/>
		<path id="XMLID_1419_" style="fill:#F4BC8E;" d="M32.587,421.219h446.826c13.855,0,25.087-11.232,25.087-25.087v-20.234    c0-4.157-3.37-7.526-7.526-7.526H15.026c-4.157,0-7.526,3.37-7.526,7.526v20.234C7.5,409.987,18.732,421.219,32.587,421.219z"/>
	</g>
	<path id="XMLID_768_" style="fill:#FBDBB7;" d="M26.5,196.157L26.5,196.157c0,16.19,13.125,29.315,29.315,29.315h112.611   c15.229,0,27.574,12.345,27.574,27.574v22.406c0,14.359,11.641,26,26,26h0c14.359,0,26-11.641,26-26v-22.406   c0-15.229,12.345-27.574,27.574-27.574h0c15.229,0,27.574,12.345,27.574,27.574v55.675c0,15.423,12.503,27.926,27.926,27.926h0   c15.423,0,27.926-12.503,27.926-27.926v-55.675c0-15.229,12.345-27.574,27.574-27.574h69.611c16.19,0,29.315-13.125,29.315-29.315   v0c0-16.19-13.125-29.315-29.315-29.315H55.815C39.625,166.843,26.5,179.967,26.5,196.157z"/>
	<g id="XMLID_769_">
		<path id="XMLID_770_" d="M496.974,360.872H463.5V232.24c16.807-3.402,29.5-18.287,29.5-36.082c0-20.3-16.515-36.815-36.815-36.815    h-37.924c-4.142,0-7.5,3.358-7.5,7.5s3.358,7.5,7.5,7.5h37.924c12.029,0,21.815,9.786,21.815,21.815    c0,12.028-9.786,21.814-21.815,21.814h-69.611c-19.34,0-35.074,15.734-35.074,35.074v55.675c0,11.263-9.163,20.426-20.426,20.426    c-11.263,0-20.426-9.163-20.426-20.426v-55.675c0-19.34-15.734-35.074-35.074-35.074S240.5,233.707,240.5,253.046v22.406    c0,10.201-8.299,18.5-18.5,18.5s-18.5-8.299-18.5-18.5v-22.406c0-19.34-15.734-35.074-35.074-35.074H55.815    c-12.029,0-21.815-9.786-21.815-21.814c0-12.029,9.786-21.815,21.815-21.815h327.924c4.142,0,7.5-3.358,7.5-7.5    s-3.358-7.5-7.5-7.5h-38.252c0.01-0.01,0.021-0.02,0.031-0.03C368.42,136.411,376.514,101,367.17,64.588    c-1.572-6.122-6.351-10.903-12.472-12.478c-36.41-9.363-71.828-1.271-94.74,21.643c-6.442,6.442-11.704,13.769-15.745,21.783    c-11.267-9.777-25.705-15.25-40.854-15.25c-3.983,0-7.874,0.391-11.651,1.108c-4.827-12.527-13.454-26.312-28.886-35.801    c-3.53-2.17-8.148-1.068-10.317,2.46c-2.17,3.529-1.068,8.148,2.46,10.317c11.627,7.149,18.393,17.762,22.343,27.638    c-21.421,9.889-36.33,31.56-36.33,56.66c0,5.702,0.769,11.279,2.266,16.675H55.815c-20.3,0-36.815,16.515-36.815,36.815    c0,17.795,12.693,32.68,29.5,36.082v128.632H15.026C6.741,360.872,0,367.612,0,375.898v20.234    c0,17.969,14.619,32.587,32.587,32.587h8.751v20.496c0,10.094,8.212,18.306,18.306,18.306h392.712    c10.094,0,18.306-8.212,18.306-18.306v-20.496h8.751c17.969,0,32.587-14.619,32.587-32.587v-20.234    C512,367.612,505.259,360.872,496.974,360.872z M270.564,84.359c19.41-19.409,48.714-25.867,80.398-17.722    c0.812,0.208,1.471,0.868,1.679,1.679c8.132,31.689,1.67,60.99-17.73,80.39c-4.054,4.054-8.616,7.596-13.56,10.527    c-0.057,0.034-0.109,0.074-0.165,0.109h-50.652l16.086-16.086c5.483,1.347,11.07,2.034,16.713,2.034    c2.604,0,5.22-0.144,7.842-0.433c4.117-0.453,7.088-4.158,6.635-8.275c-0.453-4.118-4.161-7.091-8.275-6.635    c-3.294,0.362-6.573,0.432-9.823,0.218l8.038-8.038c5.483,1.347,11.071,2.034,16.714,2.034c2.604,0,5.22-0.144,7.842-0.433    c4.117-0.453,7.088-4.158,6.635-8.275c-0.453-4.118-4.159-7.093-8.275-6.635c-3.293,0.362-6.573,0.431-9.823,0.217l10.236-10.236    c2.929-2.929,2.929-7.678,0-10.606c-2.929-2.929-7.678-2.929-10.606,0l-10.235,10.235c-0.214-3.25-0.145-6.529,0.217-9.823    c0.453-4.117-2.518-7.822-6.635-8.275c-4.109-0.452-7.822,2.518-8.275,6.635c-0.913,8.301-0.359,16.535,1.609,24.546l-8.046,8.046    c-0.214-3.25-0.145-6.529,0.217-9.823c0.453-4.118-2.518-7.822-6.635-8.275c-4.116-0.452-7.822,2.519-8.275,6.635    c-0.913,8.302-0.359,16.536,1.609,24.547l-24.803,24.803C245.804,128.601,252.72,102.205,270.564,84.359z M155.977,142.667    c0-18.264,10.393-34.136,25.57-42.042c1.221,6.419,1.286,10.847,1.286,10.989c0.009,4.134,3.364,7.482,7.5,7.482    c4.142,0,7.5-3.358,7.5-7.5c0-0.672-0.057-6.977-1.881-15.729c2.414-0.381,4.887-0.583,7.407-0.583    c13.335,0,25.946,5.586,34.922,15.377c-4.344,14.902-5.079,31.448-1.963,48.68h-77.323    C156.993,154.029,155.977,148.432,155.977,142.667z M386.574,232.972H448.5v29.902h-82v-9.828    C366.5,241.978,375.505,232.972,386.574,232.972z M275.574,232.972c11.069,0,20.074,9.005,20.074,20.074v9.828H255.5v-9.828    C255.5,241.978,264.505,232.972,275.574,232.972z M188.5,253.046v9.828h-125v-29.902h104.926    C179.495,232.972,188.5,241.978,188.5,253.046z M497,396.132c0,9.697-7.89,17.587-17.587,17.587h-78.152    c-4.142,0-7.5,3.358-7.5,7.5s3.358,7.5,7.5,7.5h54.401v20.496c0,1.823-1.483,3.306-3.306,3.306H59.644    c-1.823,0-3.306-1.483-3.306-3.306v-20.496h310.401c4.142,0,7.5-3.358,7.5-7.5s-3.358-7.5-7.5-7.5H32.587    c-9.697,0-17.587-7.89-17.587-17.587l0.026-20.26h189.713c4.142,0,7.5-3.358,7.5-7.5s-3.358-7.5-7.5-7.5H63.5v-82.997h125.097    c1.247,17.344,15.746,31.078,33.403,31.078s32.156-13.733,33.403-31.078h40.245v30.847c0,19.534,15.892,35.426,35.426,35.426    c19.534,0,35.426-15.892,35.426-35.426v-30.847h82v82.997H239.261c-4.142,0-7.5,3.358-7.5,7.5s3.358,7.5,7.5,7.5L497,375.898    V396.132z"/>
		<path id="XMLID_778_" d="M93.396,293.952h-0.104c-4.142,0-7.5,3.358-7.5,7.5s3.358,7.5,7.5,7.5h0.104c4.142,0,7.5-3.358,7.5-7.5    S97.538,293.952,93.396,293.952z"/>
		<path id="XMLID_779_" d="M115.647,311.873h-0.104c-4.142,0-7.5,3.358-7.5,7.5s3.358,7.5,7.5,7.5h0.104c4.142,0,7.5-3.358,7.5-7.5    S119.79,311.873,115.647,311.873z"/>
		<path id="XMLID_780_" d="M408,304.401h0.104c4.142,0,7.5-3.358,7.5-7.5s-3.358-7.5-7.5-7.5H408c-4.142,0-7.5,3.358-7.5,7.5    S403.858,304.401,408,304.401z"/>
	</g>
</g>















</svg>
